<?xml version="1.0" standalone="no"?>
<!DOCTYPE svg PUBLIC "-//W3C//DTD SVG 20010904//EN"
 "http://www.w3.org/TR/2001/REC-SVG-20010904/DTD/svg10.dtd">
<svg version="1.0" xmlns="http://www.w3.org/2000/svg"
 width="1280.000000pt" height="1236.000000pt" viewBox="0 0 1280.000000 1236.000000"
 preserveAspectRatio="xMidYMid meet">
<g transform="translate(0.000000,1236.000000) scale(0.100000,-0.100000)"
fill="#000000" stroke="none">
<path d="M3037 12339 c-37 -10 -91 -31 -119 -45 -62 -32 -157 -119 -197 -183
-59 -93 -2644 -7231 -2705 -7469 -20 -81 -20 -104 4 -176 43 -128 112 -204
238 -263 181 -85 409 -84 587 1 85 40 186 130 232 207 22 37 180 498 499 1459
1081 3255 1531 4595 1545 4595 15 0 -5 62 365 -1115 385 -1223 593 -1878 750
-2360 75 -228 147 -451 161 -495 14 -44 32 -93 40 -110 44 -87 136 -164 241
-201 28 -10 52 -23 52 -28 0 -5 -46 -57 -103 -115 -158 -164 -270 -347 -297
-486 -6 -33 -14 -139 -16 -235 -3 -96 -7 -185 -10 -197 -2 -13 -23 -33 -50
-49 -33 -20 -52 -40 -65 -69 -25 -56 -34 -141 -20 -192 10 -35 21 -48 69 -80
l57 -38 6 -75 c3 -42 13 -92 24 -115 45 -94 175 -182 302 -205 72 -12 104 -7
155 27 28 19 41 22 56 14 34 -18 637 -413 655 -429 11 -10 17 -30 17 -61 0
-76 18 -120 73 -178 72 -77 157 -115 265 -121 49 -3 100 0 127 8 l45 13 113
-74 c146 -95 197 -121 224 -114 43 10 1096 650 1117 678 17 24 21 42 20 110 0
108 -21 156 -89 200 -58 38 -58 37 -27 184 46 213 46 507 2 643 -60 182 -209
334 -388 396 -52 18 -53 20 -46 49 4 17 8 49 7 73 -1 49 -21 77 -72 98 l-34
14 7 183 c3 100 11 277 16 392 6 116 19 410 30 655 27 582 66 1350 90 1775 11
187 23 392 26 455 4 63 11 123 15 132 5 9 22 19 38 23 40 9 72 46 78 92 7 59
-10 91 -62 113 -54 23 -57 42 -11 58 46 17 130 94 160 146 14 22 32 67 41 99
9 32 22 60 29 63 7 3 151 -45 322 -107 484 -174 1332 -473 1403 -494 44 -13
77 -31 103 -56 34 -32 38 -41 38 -83 0 -47 -572 -2055 -1951 -6856 -528 -1839
-541 -1887 -542 -1976 -1 -83 1 -96 31 -156 60 -122 189 -216 347 -253 39 -9
86 -20 106 -26 87 -22 261 8 387 67 96 46 192 136 231 218 19 39 162 540 390
1371 1100 4007 1740 6331 1793 6515 23 79 38 115 48 115 10 0 28 -38 53 -115
148 -447 417 -1297 797 -2525 611 -1973 867 -2767 911 -2831 92 -134 290 -234
464 -234 173 0 378 103 479 240 42 57 86 165 86 210 0 12 -18 76 -39 143 -22
67 -333 1031 -691 2142 -358 1111 -753 2333 -877 2715 -123 382 -285 882 -359
1110 -74 228 -149 443 -166 477 -94 186 -276 352 -513 471 -45 22 -208 79
-375 132 -853 266 -1821 578 -4325 1395 -833 271 -1529 497 -2079 674 -206 67
-232 70 -339 40z m1503 -1312 l565 -202 0 -150 c2 -194 22 -272 96 -366 34
-43 36 -55 10 -68 -41 -22 -53 -118 -19 -159 7 -8 33 -24 57 -35 l44 -19 -7
-287 c-4 -157 -11 -428 -16 -601 -5 -173 -14 -488 -20 -700 -20 -730 -30
-1012 -36 -1022 -11 -17 -21 8 -100 247 -104 317 -908 2748 -1054 3189 -66
198 -117 363 -114 368 3 4 11 8 17 7 7 0 266 -91 577 -202z m935 -336 l130
-47 3 -60 c2 -46 -2 -69 -20 -103 -13 -24 -27 -45 -33 -45 -5 -1 -12 20 -15
46 -6 52 -33 96 -71 116 -32 17 -92 9 -125 -17 -14 -11 -30 -18 -35 -15 -5 3
-9 43 -9 90 0 81 1 84 23 84 12 -1 81 -22 152 -49z m729 -266 c203 -74 374
-140 382 -146 10 -8 12 -31 7 -92 -6 -98 9 -214 38 -293 17 -46 37 -74 90
-126 38 -36 69 -69 69 -72 0 -3 -20 -14 -45 -25 -34 -15 -49 -29 -60 -55 -30
-71 -10 -123 57 -147 l43 -15 -2 -85 c-6 -179 -164 -3505 -168 -3525 -3 -14
-17 -25 -43 -32 -58 -18 -87 -54 -87 -110 0 -26 -3 -52 -7 -58 -4 -6 -33 -16
-64 -23 -123 -28 -260 -99 -392 -204 -36 -28 -67 -46 -72 -41 -4 5 -4 56 2
114 19 209 -8 398 -72 504 -50 82 -161 184 -252 231 -76 39 -76 39 -80 85 -7
65 -31 98 -85 112 -44 11 -45 11 -39 47 15 88 18 193 7 235 -8 33 -8 126 -1
343 5 164 14 456 20 648 6 193 15 496 20 675 5 179 14 483 20 675 30 1004 28
968 53 988 79 64 80 66 74 135 l-6 64 55 50 c65 60 96 111 119 193 23 86 23
85 38 85 7 0 179 -61 381 -135z m699 -254 c208 -74 197 -67 197 -115 0 -43
-35 -127 -56 -133 -6 -2 -17 10 -24 27 -27 66 -103 90 -172 54 -20 -10 -34
-12 -40 -6 -13 13 -33 164 -25 186 9 22 26 20 120 -13z m-1460 -4301 c51 -40
71 -103 75 -235 5 -157 4 -158 -108 -94 -55 32 -97 49 -119 49 -23 0 -96 -32
-231 -101 -110 -56 -204 -98 -210 -94 -47 29 111 319 241 440 51 48 72 54 103
30 29 -22 123 -19 166 4 45 25 52 25 83 1z m1427 -676 c62 -56 66 -81 46 -301
-10 -103 -21 -192 -26 -196 -4 -5 -14 -7 -22 -5 -8 1 -137 75 -286 162 -206
121 -272 165 -272 179 0 24 109 130 151 147 24 10 35 11 48 2 62 -46 78 -52
133 -52 59 0 94 19 141 78 25 30 40 28 87 -14z"/>
</g>
</svg>
